<svg xmlns="http://www.w3.org/2000/svg" width="32" height="32" viewBox="0 0 32 32">
  <defs>
    <linearGradient id="gradient" x1="0%" y1="0%" x2="100%" y2="100%">
      <stop offset="0%" stop-color="#4F46E5" />
      <stop offset="100%" stop-color="#7C3AED" />
    </linearGradient>
  </defs>
  <rect width="32" height="32" rx="8" fill="url(#gradient)" />
  <path d="M24 10.667H8c-0.733 0-1.333 0.6-1.333 1.333v13.333c0 0.733 0.6 1.333 1.333 1.333h16c0.733 0 1.333-0.6 1.333-1.333V12c0-0.733-0.6-1.333-1.333-1.333zm0 14.666H8V12h16v13.333zm-2.667-10.666H10.667v2.666h10.666v-2.666zm0 5.333H10.667v2.667h10.666v-2.667zM8 8h16c0.733 0 1.333-0.6 1.333-1.333V5.333c0-0.733-0.6-1.333-1.333-1.333H8c-0.733 0-1.333 0.6-1.333 1.333v1.334C6.667 7.4 7.267 8 8 8z" fill="white" />
</svg>