<svg xmlns="http://www.w3.org/2000/svg" width="1024" height="1024" viewBox="0 0 1024 1024">
  <defs>
    <linearGradient id="gradient" x1="0%" y1="0%" x2="100%" y2="100%">
      <stop offset="0%" stop-color="#4F46E5" />
      <stop offset="100%" stop-color="#7C3AED" />
    </linearGradient>
  </defs>
  <rect width="1024" height="1024" fill="#ffffff" />
  <circle cx="512" cy="512" r="256" fill="url(#gradient)" />
  <path d="M640 384H384c-17.7 0-32 14.3-32 32v320c0 17.7 14.3 32 32 32h256c17.7 0 32-14.3 32-32V416c0-17.7-14.3-32-32-32zm0 352H384V416h256v320zm-64-256H448v64h128v-64zm0 128H448v64h128v-64zm-192-224h256c17.7 0 32-14.3 32-32v-32c0-17.7-14.3-32-32-32H384c-17.7 0-32 14.3-32 32v32c0 17.7 14.3 32 32 32z" fill="white" />
</svg>